<svg width="418" height="611" viewBox="0 0 418 611" fill="none" xmlns="http://www.w3.org/2000/svg">
<mask id="mask0_11_320" style="mask-type:luminance" maskUnits="userSpaceOnUse" x="66" y="24" width="480" height="498">
<path d="M481.446 470.798C415.042 511.476 348.055 527.439 280.487 518.687C212.918 509.934 156.557 481.679 111.405 433.922C66.2525 386.165 54.9516 333.981 77.5024 277.37C100.053 220.759 123.126 158.822 146.72 91.5601C170.314 24.298 213.391 7.8017 275.952 42.0713C338.512 76.341 386.446 112.315 419.753 149.993C453.06 187.67 488.27 240.388 525.383 308.145C562.496 375.902 547.85 430.12 481.446 470.798Z" fill="white"/>
</mask>
<g mask="url(#mask0_11_320)">
<path d="M481.446 470.798C415.042 511.476 348.055 527.439 280.487 518.687C212.918 509.934 156.557 481.679 111.405 433.922C66.2525 386.165 54.9516 333.981 77.5024 277.37C100.053 220.759 123.126 158.822 146.72 91.5601C170.314 24.298 213.391 7.8017 275.952 42.0713C338.512 76.341 386.446 112.315 419.753 149.993C453.06 187.67 488.27 240.388 525.383 308.145C562.496 375.902 547.85 430.12 481.446 470.798Z" fill="url(#paint0_linear_11_320)"/>
</g>
<defs>
<linearGradient id="paint0_linear_11_320" x1="187.746" y1="0.751709" x2="632.898" y2="206.711" gradientUnits="userSpaceOnUse">
<stop stop-color="#4A659D"/>
<stop offset="1" stop-color="#D9DFF0"/>
</linearGradient>
</defs>
</svg>
