<svg width="397" height="339" viewBox="0 0 397 339" fill="none" xmlns="http://www.w3.org/2000/svg">
<mask id="mask0_16_322" style="mask-type:luminance" maskUnits="userSpaceOnUse" x="7" y="10" width="377" height="313">
<path d="M337.537 242.409C295.655 264.848 262.133 285.248 236.971 303.609C211.808 321.97 183.163 326.75 151.036 317.948C118.908 309.146 83.888 294.087 45.976 272.768C8.06396 251.45 -1.54564 221.765 17.1472 183.715C35.8401 145.664 53.1742 105.361 69.1495 62.806C85.1249 20.251 116.039 3.49692 161.892 12.5439C207.744 21.5909 251.3 34.469 292.559 51.1782C333.817 67.8873 362.099 98.3267 377.404 142.496C392.708 186.666 379.42 219.97 337.537 242.409Z" fill="white"/>
</mask>
<g mask="url(#mask0_16_322)">
<path d="M337.537 242.409C295.655 264.848 262.133 285.248 236.971 303.609C211.808 321.97 183.163 326.75 151.036 317.948C118.908 309.146 83.888 294.087 45.976 272.768C8.06396 251.45 -1.54564 221.765 17.1472 183.715C35.8401 145.664 53.1742 105.361 69.1495 62.806C85.1249 20.251 116.039 3.49692 161.892 12.5439C207.744 21.5909 251.3 34.469 292.559 51.1782C333.817 67.8873 362.099 98.3267 377.404 142.496C392.708 186.666 379.42 219.97 337.537 242.409Z" fill="url(#paint0_linear_16_322)"/>
</g>
<g clip-path="url(#clip0_16_322)">
<path d="M60.1068 274.28C61.9056 274.911 63.837 275.069 65.7147 274.739C67.5925 274.408 69.3535 273.601 70.8279 272.395C74.583 269.249 75.7606 264.069 76.7182 259.271L79.5517 245.079L73.6197 249.155C69.3534 252.086 64.9914 255.112 62.0378 259.358C59.0841 263.604 57.7956 269.4 60.168 273.995" fill="#E6E6E6"/>
<path d="M61.0227 292.45C60.2761 287.021 59.5079 281.523 60.0329 276.036C60.4981 271.163 61.9878 266.405 65.0206 262.502C66.6305 260.434 68.5893 258.663 70.8091 257.267C71.3878 256.902 71.9206 257.817 71.3444 258.181C67.5034 260.603 64.5324 264.18 62.86 268.396C61.0128 273.084 60.7162 278.195 61.0344 283.176C61.2267 286.187 61.6354 289.179 62.0458 292.168C62.0782 292.303 62.058 292.446 61.9892 292.566C61.9204 292.687 61.8082 292.777 61.6753 292.819C61.5397 292.855 61.3952 292.837 61.2731 292.768C61.151 292.699 61.0612 292.584 61.0231 292.449L61.0227 292.45Z" fill="#F2F2F2"/>
<path d="M66.397 283.739C67.1683 284.91 68.2287 285.862 69.476 286.505C70.7233 287.147 72.1154 287.459 73.5182 287.408C77.1241 287.238 80.129 284.727 82.8337 282.343L90.8356 275.292L85.5399 275.039C81.7315 274.857 77.8248 274.687 74.1973 275.86C70.5699 277.033 67.2246 279.853 66.5614 283.6" fill="#E6E6E6"/>
<path d="M58.9123 295.57C62.5068 289.223 66.6759 282.169 74.1259 279.914C76.1972 279.29 78.369 279.066 80.5245 279.255C81.204 279.314 81.0343 280.359 80.3563 280.3C76.743 280.001 73.1368 280.953 70.1446 282.996C67.2652 284.952 65.0232 287.672 63.1259 290.555C61.9635 292.321 60.9224 294.163 59.8813 296.001C59.5486 296.589 58.5757 296.165 58.9123 295.57Z" fill="#F2F2F2"/>
<path d="M165.961 166.94C165.733 167.05 165.513 167.179 165.305 167.323L144.127 159.062L143.287 153.613L134.882 153.803L135.429 163.593C135.473 164.384 135.773 165.139 136.284 165.745C136.795 166.351 137.489 166.776 138.262 166.955L163.462 172.789C163.77 173.715 164.353 174.525 165.134 175.112C165.914 175.699 166.855 176.035 167.832 176.075C168.808 176.116 169.774 175.858 170.601 175.337C171.427 174.817 172.075 174.057 172.458 173.16C172.841 172.263 172.942 171.27 172.746 170.314C172.55 169.359 172.068 168.485 171.362 167.81C170.657 167.135 169.762 166.69 168.798 166.535C167.833 166.379 166.843 166.52 165.961 166.94Z" fill="#9F616A"/>
<path d="M134.163 290.042L139.784 290.042L142.458 268.404L134.162 268.405L134.163 290.042Z" fill="#9F616A"/>
<path d="M132.729 288.21L143.799 288.21H143.8C145.671 288.21 147.465 288.952 148.788 290.272C150.111 291.592 150.854 293.383 150.854 295.25V295.479L132.729 295.479L132.729 288.21Z" fill="#2F2E41"/>
<path d="M107.111 290.042L112.733 290.042L115.407 268.404L107.11 268.405L107.111 290.042Z" fill="#9F616A"/>
<path d="M105.677 288.21L116.747 288.21H116.748C118.619 288.21 120.413 288.952 121.736 290.272C123.059 291.592 123.803 293.383 123.803 295.25V295.479L105.678 295.479L105.677 288.21Z" fill="#2F2E41"/>
<path d="M110.37 125.073C108.77 118.477 107.413 111.037 110.432 104.961C112.527 100.746 120.277 99.3262 124.719 100.845C129.162 102.363 132.373 106.484 133.786 110.976C135.199 115.468 135.034 120.309 134.419 124.979C126.249 124.823 118.078 124.666 110.37 125.073Z" fill="#2F2E41"/>
<path d="M124.158 125.071C129.42 125.071 133.685 120.814 133.685 115.563C133.685 110.312 129.42 106.056 124.158 106.056C118.896 106.056 114.631 110.312 114.631 115.563C114.631 120.814 118.896 125.071 124.158 125.071Z" fill="#9F616A"/>
<path d="M112.511 113.605C112.481 112.005 112.773 110.415 113.371 108.93C113.968 107.444 114.859 106.094 115.99 104.959C117.12 103.824 118.468 102.928 119.953 102.323C121.438 101.718 123.029 101.417 124.633 101.438C126.237 101.459 127.82 101.802 129.288 102.446C130.756 103.089 132.08 104.021 133.181 105.185C134.281 106.35 135.136 107.723 135.694 109.223C136.252 110.724 136.502 112.321 136.43 113.92C128.275 113.937 120.12 113.954 112.511 113.605Z" fill="#2F2E41"/>
<path d="M116.251 160.148L112.267 166.776C112.267 166.776 101.355 187.199 102.004 204.129L104.418 225.215L101.768 230.39L103.542 239.494L100.248 246.016L106.203 277.502L106.456 284.33H116.086L115.579 277.375L119.634 246.702L126.476 213.952L130.024 242.223L128.757 249.304L130.404 255.247L132.685 273.582L132.938 282.433L141.681 283.445L144.976 250.695L146.876 235.069L136.69 165.784L116.251 160.148Z" fill="#2F2E41"/>
<path d="M114.987 128.149L109.055 130.663L105.724 144.423L112.738 162.351L110.116 171.309C118.054 184.86 127.879 186.829 139.441 178.139C136.994 171.282 137.348 164.233 139.786 157.038C139.786 157.038 145.868 151.386 141.62 144.038L137.567 133.06L132.549 130.557L114.987 128.149Z" fill="#CBCBCB"/>
<path d="M136.398 135.454L137.745 132.958C137.745 132.958 141.296 133.491 142.747 137.757C144.197 142.024 144.574 159.259 144.574 159.259L136.976 159.643L136.398 135.454Z" fill="#CBCBCB"/>
<path d="M106.63 193.951C107.275 193.631 107.841 193.174 108.289 192.612C108.738 192.049 109.057 191.396 109.225 190.697C109.393 189.998 109.406 189.271 109.261 188.567C109.117 187.863 108.82 187.199 108.391 186.622L112.074 150.685H104.115L101.188 185.776C100.264 186.559 99.6602 187.654 99.4911 188.852C99.3219 190.05 99.599 191.268 100.27 192.276C100.941 193.284 101.959 194.011 103.131 194.32C104.303 194.629 105.548 194.498 106.63 193.951Z" fill="#9F616A"/>
<path d="M113.903 134.728L111.114 130.792C111.114 130.792 106.208 127.473 103.707 135.112C101.206 142.75 101.591 156.902 101.591 156.902L111.114 160.837L113.903 134.728Z" fill="#CBCBCB"/>
<path d="M280.203 76.1011H236.186V100.81H280.203V76.1011Z" fill="#F1F1F1"/>
<path d="M370.987 56.8833H326.97V81.592H370.987V56.8833Z" fill="#F1F1F1"/>
<path d="M357.232 120.943H313.215V145.651H357.232V120.943Z" fill="#F1F1F1"/>
<path d="M340.726 41.7834H296.709V66.4921H340.726V41.7834Z" fill="#E5E5E5"/>
<path d="M342.101 87.3401H269.657V128.006H342.101V87.3401Z" fill="#9F7927"/>
<path d="M195.688 153.228H271.672V120.645H272.86V154.413H195.688V153.228Z" fill="#3F3D56"/>
<path d="M272.266 132.633C275.872 132.633 278.796 129.716 278.796 126.117C278.796 122.518 275.872 119.6 272.266 119.6C268.66 119.6 265.736 122.518 265.736 126.117C265.736 129.716 268.66 132.633 272.266 132.633Z" fill="#3F3D56"/>
<path d="M214.354 164.904H178.736V166.088H214.354V164.904Z" fill="#9F7927"/>
<path d="M214.354 168.458H178.736V169.643H214.354V168.458Z" fill="#9F7927"/>
<path d="M214.354 172.012H178.736V173.197H214.354V172.012Z" fill="#9F7927"/>
<path d="M189.052 296.191H35.9111C35.7895 296.191 35.6729 296.143 35.5869 296.057C35.5009 295.971 35.4526 295.855 35.4526 295.734C35.4526 295.612 35.5009 295.496 35.5869 295.41C35.6729 295.324 35.7895 295.276 35.9111 295.276H189.052C189.174 295.276 189.29 295.324 189.376 295.41C189.462 295.496 189.511 295.612 189.511 295.734C189.511 295.855 189.462 295.971 189.376 296.057C189.29 296.143 189.174 296.191 189.052 296.191Z" fill="#CBCBCB"/>
<path d="M178.045 287.774C177.231 288.06 176.357 288.131 175.507 287.982C174.657 287.832 173.86 287.467 173.193 286.921C171.493 285.498 170.96 283.152 170.527 280.98L169.244 274.557L171.929 276.402C173.86 277.729 175.834 279.098 177.171 281.02C178.508 282.942 179.092 285.565 178.018 287.645" fill="#E6E6E6"/>
<path d="M177.816 295.551C178.167 293.581 178.288 291.576 178.176 289.578C178.053 287.798 177.423 286.089 176.361 284.653C175.776 283.901 175.063 283.256 174.255 282.748C174.044 282.616 173.851 282.949 174.06 283.081C175.458 283.962 176.539 285.264 177.147 286.798C177.761 288.521 177.987 290.357 177.811 292.176C177.741 293.272 177.592 294.361 177.443 295.448C177.431 295.498 177.438 295.55 177.463 295.594C177.488 295.638 177.529 295.67 177.577 295.685C177.627 295.699 177.679 295.692 177.724 295.667C177.768 295.642 177.801 295.6 177.815 295.551L177.816 295.551Z" fill="#F2F2F2"/>
</g>
<defs>
<linearGradient id="paint0_linear_16_322" x1="26.6919" y1="0" x2="396.31" y2="32.1522" gradientUnits="userSpaceOnUse">
<stop stop-color="#4A659D"/>
<stop offset="1" stop-color="#D9DFF0"/>
</linearGradient>
<clipPath id="clip0_16_322">
<rect width="335.534" height="254.5" fill="white" transform="translate(35.4526 41.7834)"/>
</clipPath>
</defs>
</svg>
