<svg width="515" height="431" viewBox="0 0 515 431" fill="none" xmlns="http://www.w3.org/2000/svg">
<mask id="mask0_288_25" style="mask-type:luminance" maskUnits="userSpaceOnUse" x="8" y="17" width="494" height="386">
<path d="M443.272 310.598C388.744 336.454 345.17 360.144 312.551 381.667C279.932 403.191 242.333 407.904 199.752 395.805C157.171 383.707 110.599 363.809 60.0358 336.114C9.47246 308.418 -4.04611 271.593 19.48 225.64C43.0062 179.686 64.6772 130.914 84.4929 79.3216C104.309 27.7296 144.551 8.41012 205.221 21.363C265.891 34.316 323.645 51.8789 378.484 74.0519C433.323 96.2249 471.463 134.729 492.903 189.563C514.344 244.397 497.8 284.742 443.272 310.598Z" fill="white"/>
</mask>
<g mask="url(#mask0_288_25)">
<path d="M443.272 310.598C388.744 336.454 345.17 360.144 312.551 381.667C279.932 403.191 242.333 407.904 199.752 395.805C157.171 383.707 110.599 363.809 60.0358 336.114C9.47246 308.418 -4.04611 271.593 19.48 225.64C43.0062 179.686 64.6772 130.914 84.4929 79.3216C104.309 27.7296 144.551 8.41012 205.221 21.363C265.891 34.316 323.645 51.8789 378.484 74.0519C433.323 96.2249 471.463 134.729 492.903 189.563C514.344 244.397 497.8 284.742 443.272 310.598Z" fill="url(#paint0_linear_288_25)"/>
</g>
<path d="M161.242 151.127C159.854 149.796 158.434 142.372 156.661 141.619C157.986 144.545 157.024 145.32 157.017 148.532C157.034 150.355 156.821 152.174 156.383 153.944H126.358V130.526C126.358 128.421 126.772 126.338 127.578 124.394C128.384 122.449 129.565 120.683 131.054 119.195C132.542 117.707 134.31 116.527 136.255 115.722C138.2 114.916 140.285 114.502 142.391 114.502C143.194 114.518 143.993 114.635 144.767 114.85C147.348 115.546 149.7 116.909 151.588 118.8C153.475 120.692 154.832 123.047 155.522 125.628C157.811 133.989 161.451 147.908 161.242 151.127Z" fill="#2F2E41"/>
<path d="M128.12 179.937L128.135 161.683L117.399 162.642L121.188 174.155L119.414 203.092C118.554 203.285 117.769 203.724 117.154 204.355C116.539 204.986 116.122 205.782 115.952 206.647C115.782 207.511 115.868 208.406 116.198 209.223C116.528 210.04 117.09 210.743 117.813 211.246C118.536 211.75 119.39 212.032 120.271 212.059C121.152 212.085 122.022 211.855 122.775 211.397C123.527 210.938 124.13 210.27 124.509 209.475C124.888 208.68 125.028 207.791 124.911 206.918L128.12 179.937Z" fill="#FFB6B6"/>
<path d="M149.248 310.378L153.585 310.378L155.649 293.657H149.247L149.248 310.378Z" fill="#FFB6B6"/>
<path d="M147.78 308.24L154.636 307.831V310.767L161.155 315.266C161.477 315.488 161.719 315.807 161.847 316.177C161.975 316.547 161.981 316.948 161.864 317.321C161.748 317.694 161.515 318.021 161.2 318.252C160.885 318.484 160.504 318.609 160.112 318.609H151.949L150.542 315.705L149.993 318.609H146.915L147.78 308.24Z" fill="#2F2E41"/>
<path d="M124.169 310.378L128.506 310.378L130.569 293.657H124.168L124.169 310.378Z" fill="#FFB6B6"/>
<path d="M122.7 308.24L129.557 307.831V310.767L136.075 315.266C136.397 315.488 136.64 315.807 136.767 316.177C136.895 316.547 136.901 316.948 136.785 317.321C136.668 317.694 136.435 318.021 136.12 318.252C135.805 318.484 135.424 318.609 135.033 318.609H126.87L125.463 315.705L124.913 318.609H121.835L122.7 308.24Z" fill="#2F2E41"/>
<path d="M145.386 141.971L136.4 142.147L130.058 148.838L124.973 149.583C122.673 149.921 120.558 151.037 118.982 152.745C117.406 154.453 116.465 156.65 116.315 158.969L117.196 163.805H122.482L125.54 181.748C124.351 184.776 124.27 187.166 126.71 188.104L134.286 202.367L156.661 192.33C157.796 190.381 158.16 188.422 157 186.518L158.599 159.051H163.978C163.978 153.914 162.239 149.583 157.131 149.011C155.102 148.792 153.064 148.675 151.024 148.662L145.386 141.971Z" fill="#E6E6E6"/>
<path d="M156.661 192.33C156.661 192.33 134.815 196.204 126.71 188.104C126.71 188.104 125.887 189.501 124.648 191.816C124.291 192.482 123.602 192.933 123.187 193.739C122.809 194.472 121.836 195.373 121.425 196.205C121.093 196.873 121.625 197.747 121.28 198.47C117.13 207.17 112.281 219.443 113.32 227.547C113.991 232.773 115.375 244.934 116.834 257.995C116.948 259.015 116.025 260.326 116.139 261.355C116.247 262.325 117.393 263.012 117.501 263.984C117.572 264.63 116.772 265.288 116.844 265.933C116.922 266.64 117.872 267.334 117.95 268.038C119.948 286.073 121.777 302.91 121.777 302.91H131.996L133.924 264.455L132.348 250.438L136.048 222.088L141.157 249.029L141.815 264.191L147.214 303.615H156.661V265.45L157.366 263.468L156.661 260.925L157.366 258.185L156.661 255.202V192.33Z" fill="#2F2E41"/>
<path d="M148.144 136.763C146.752 138.611 144.772 139.93 142.53 140.503C140.288 141.076 137.917 140.869 135.809 139.915C133.7 138.962 131.979 137.319 130.93 135.258C129.88 133.197 129.564 130.839 130.034 128.575C130.504 126.31 131.731 124.272 133.514 122.798C135.298 121.324 137.53 120.5 139.844 120.463C142.158 120.426 144.416 121.178 146.245 122.594C148.074 124.011 149.367 126.008 149.909 128.257C149.938 128.379 149.963 128.5 149.987 128.626C150.273 130.035 150.257 131.49 149.939 132.892C149.621 134.295 149.01 135.614 148.144 136.763Z" fill="#FFB6B6"/>
<path d="M146.02 130.955C145.804 129.871 145.257 128.881 144.456 128.12C144.535 129.159 144.391 130.202 144.033 131.181C141.354 131.418 138.663 130.885 136.277 129.645C134.48 128.427 132.193 128.532 129.529 129.645C129.529 128.35 129.784 127.068 130.28 125.871C130.776 124.675 131.502 123.588 132.419 122.672C133.335 121.757 134.423 121.03 135.62 120.535C136.817 120.039 138.1 119.784 139.396 119.785H141.157C143.774 119.785 146.283 120.824 148.133 122.673C149.984 124.522 151.023 127.03 151.024 129.645C149.398 130.228 147.723 130.666 146.02 130.955Z" fill="#2F2E41"/>
<path d="M68.9406 256.632C84.5949 256.632 97.2851 243.95 97.2851 228.304C97.2851 212.659 84.5949 199.976 68.9406 199.976C53.2864 199.976 40.5962 212.659 40.5962 228.304C40.5962 243.95 53.2864 256.632 68.9406 256.632Z" fill="#F0F0F0"/>
<path d="M249.567 126.656C265.221 126.656 277.912 113.973 277.912 98.3281C277.912 82.6829 265.221 70 249.567 70C233.913 70 221.223 82.6829 221.223 98.3281C221.223 113.973 233.913 126.656 249.567 126.656Z" fill="#F0F0F0"/>
<path d="M474.656 261.076C490.31 261.076 503 248.393 503 232.748C503 217.103 490.31 204.42 474.656 204.42C459.002 204.42 446.312 217.103 446.312 232.748C446.312 248.393 459.002 261.076 474.656 261.076Z" fill="#F0F0F0"/>
<path d="M300.698 101.417V165.653C300.698 166.988 300.172 168.268 299.233 169.217C298.294 170.165 297.018 170.705 295.683 170.719C295.665 170.721 295.646 170.722 295.628 170.721H288.147C282.162 170.721 276.421 168.345 272.189 164.115C267.957 159.885 265.579 154.148 265.579 148.166V101.417C265.579 100.073 266.113 98.7845 267.064 97.8341C268.015 96.8837 269.305 96.3498 270.65 96.3498H273.681C272.277 100.444 291.335 102.168 292.381 96.3498H295.628C296.973 96.3498 298.262 96.8837 299.213 97.8341C300.164 98.7845 300.698 100.073 300.698 101.417Z" fill="#9F7927"/>
<path d="M278.499 91.5465C278.499 91.3704 278.569 91.2016 278.694 91.0771C278.818 90.9526 278.987 90.8825 279.164 90.8823H283.682C283.858 90.8828 284.027 90.953 284.151 91.0775C284.275 91.202 284.345 91.3707 284.345 91.5465C284.345 91.7223 284.275 91.8909 284.151 92.0154C284.027 92.1399 283.858 92.2101 283.682 92.2106H279.164C278.987 92.2104 278.818 92.1404 278.694 92.0159C278.569 91.8914 278.499 91.7225 278.499 91.5465Z" fill="#3F3D56"/>
<path d="M297.18 178.869H268.605C266.388 178.866 264.262 177.985 262.694 176.418C261.127 174.852 260.245 172.727 260.242 170.512V125.608C260.085 125.495 259.958 125.347 259.87 125.175C259.782 125.003 259.736 124.813 259.736 124.62V120.104C259.736 119.911 259.782 119.721 259.87 119.549C259.958 119.377 260.085 119.229 260.242 119.116V117.904C260.085 117.792 259.958 117.643 259.87 117.471C259.782 117.3 259.736 117.109 259.736 116.916V112.4C259.736 112.207 259.782 112.017 259.87 111.845C259.958 111.673 260.085 111.525 260.242 111.412V109.222C260.049 109.118 259.887 108.963 259.774 108.774C259.662 108.585 259.602 108.37 259.603 108.15V103.634C259.602 103.414 259.662 103.198 259.774 103.009C259.887 102.82 260.049 102.666 260.242 102.562V96.559C260.245 94.3432 261.127 92.219 262.695 90.6522C264.262 89.0855 266.388 88.2042 268.605 88.2017H297.18C299.397 88.2042 301.523 89.0855 303.091 90.6523C304.658 92.219 305.54 94.3433 305.543 96.559V109.643C305.693 109.738 305.817 109.868 305.903 110.024C305.99 110.179 306.035 110.354 306.035 110.531V119.142C306.035 119.32 305.99 119.494 305.903 119.65C305.817 119.805 305.693 119.936 305.543 120.03V170.512C305.54 172.727 304.658 174.852 303.091 176.418C301.523 177.985 299.397 178.866 297.18 178.869ZM268.605 89.3126C266.682 89.3148 264.839 90.0789 263.48 91.4374C262.121 92.7959 261.356 94.6378 261.354 96.559V103.507L260.819 103.527C260.792 103.528 260.765 103.54 260.746 103.56C260.726 103.579 260.715 103.606 260.715 103.634V108.15C260.715 108.177 260.726 108.204 260.746 108.224C260.765 108.244 260.792 108.255 260.819 108.256L261.354 108.277V112.192L260.931 112.296C260.908 112.302 260.887 112.315 260.872 112.334C260.857 112.353 260.848 112.376 260.848 112.4V116.916C260.848 116.94 260.857 116.964 260.872 116.982C260.887 117.001 260.908 117.014 260.931 117.02L261.354 117.124V119.896L260.931 120C260.908 120.006 260.887 120.019 260.872 120.038C260.857 120.057 260.848 120.08 260.848 120.104V124.62C260.848 124.644 260.857 124.667 260.872 124.686C260.887 124.705 260.908 124.718 260.931 124.724L261.354 124.828V170.512C261.356 172.433 262.121 174.275 263.48 175.633C264.839 176.992 266.682 177.756 268.605 177.758H297.18C299.103 177.756 300.946 176.992 302.305 175.633C303.664 174.275 304.429 172.433 304.431 170.512V119.079H304.923V110.595H304.431V96.559C304.429 94.6378 303.664 92.7959 302.305 91.4374C300.946 90.079 299.103 89.3148 297.18 89.3126L268.605 89.3126Z" fill="#3F3D56"/>
<path d="M286.207 92.2106C286.574 92.2106 286.872 91.9133 286.872 91.5465C286.872 91.1797 286.574 90.8823 286.207 90.8823C285.84 90.8823 285.543 91.1797 285.543 91.5465C285.543 91.9133 285.84 92.2106 286.207 92.2106Z" fill="#3F3D56"/>
<path d="M141.653 220.196H67.2978C66.2419 220.194 65.23 219.773 64.4833 219.027C63.7366 218.281 63.3158 217.27 63.313 216.214V180.005C63.3157 178.949 63.7363 177.938 64.4829 177.192C65.2295 176.446 66.2414 176.025 67.2973 176.022H141.653C142.709 176.025 143.72 176.445 144.467 177.191C145.214 177.938 145.635 178.949 145.637 180.004V216.214C145.635 217.269 145.214 218.28 144.468 219.027C143.721 219.773 142.709 220.193 141.653 220.196Z" fill="white"/>
<path d="M141.653 220.196H67.2978C66.2419 220.194 65.23 219.773 64.4833 219.027C63.7366 218.281 63.3158 217.27 63.313 216.214V180.005C63.3157 178.949 63.7363 177.938 64.4829 177.192C65.2295 176.446 66.2414 176.025 67.2973 176.022H141.653C142.709 176.025 143.72 176.445 144.467 177.191C145.214 177.938 145.635 178.949 145.637 180.004V216.214C145.635 217.269 145.214 218.28 144.468 219.027C143.721 219.773 142.709 220.193 141.653 220.196ZM67.2978 177.133C66.5364 177.135 65.8068 177.439 65.2684 177.977C64.73 178.515 64.4266 179.244 64.4245 180.005V216.214C64.4267 216.975 64.7302 217.704 65.2687 218.242C65.8072 218.78 66.5369 219.083 67.2984 219.085H141.652C142.414 219.083 143.143 218.78 143.682 218.242C144.22 217.704 144.524 216.974 144.526 216.213V180.005C144.524 179.244 144.22 178.515 143.682 177.976C143.143 177.438 142.414 177.135 141.652 177.133L67.2978 177.133Z" fill="#3F3D56"/>
<path d="M108.461 214.845C93.7963 214.845 78.5052 214.705 72.7999 214.614C72.0493 214.599 71.3345 214.291 70.808 213.756C70.2816 213.221 69.9853 212.501 69.9824 211.751V181.778C69.9827 181.509 70.0895 181.251 70.2793 181.061C70.4692 180.871 70.7267 180.763 70.9956 180.762H137.953C138.222 180.763 138.479 180.869 138.67 181.059C138.86 181.249 138.967 181.506 138.968 181.775V202.111C138.956 205.431 137.642 208.613 135.309 210.976C132.975 213.338 129.809 214.693 126.487 214.749C121.17 214.818 114.874 214.845 108.461 214.845Z" fill="#9F7927"/>
<path d="M133.978 200.243H73.477C72.9704 200.241 72.4765 200.084 72.0624 199.792C71.6484 199.501 71.3342 199.089 71.1627 198.612L64.3149 179.412C64.1829 179.042 64.1418 178.645 64.1949 178.256C64.2481 177.866 64.394 177.495 64.6204 177.174C64.8468 176.852 65.1471 176.59 65.496 176.409C65.8449 176.227 66.2323 176.132 66.6256 176.131L142.251 176.026C142.61 176.026 142.966 176.104 143.292 176.256C143.617 176.407 143.906 176.629 144.137 176.904C144.368 177.179 144.536 177.502 144.629 177.849C144.721 178.196 144.737 178.559 144.674 178.913L144.732 178.938L144.515 179.444L144.513 179.449L136.235 198.754C136.046 199.196 135.732 199.573 135.33 199.838C134.929 200.102 134.459 200.243 133.978 200.243ZM142.254 177.137L66.6278 177.242C66.4123 177.243 66.2001 177.295 66.0089 177.394C65.8178 177.493 65.6533 177.637 65.5292 177.813C65.4052 177.989 65.3253 178.192 65.2961 178.406C65.267 178.619 65.2895 178.836 65.3618 179.039L72.2094 198.238C72.3035 198.499 72.4757 198.725 72.7026 198.885C72.9295 199.045 73.2002 199.131 73.4778 199.132H133.978C134.241 199.132 134.499 199.055 134.718 198.91C134.938 198.765 135.11 198.559 135.213 198.317L143.491 179.012C143.579 178.807 143.615 178.584 143.595 178.362C143.575 178.141 143.501 177.927 143.378 177.741C143.255 177.556 143.089 177.403 142.892 177.298C142.696 177.192 142.477 177.137 142.254 177.137Z" fill="#3F3D56"/>
<path d="M104.362 204.422C106.979 204.422 109.1 202.302 109.1 199.687C109.1 197.073 106.979 194.953 104.362 194.953C101.746 194.953 99.625 197.073 99.625 199.687C99.625 202.302 101.746 204.422 104.362 204.422Z" fill="white"/>
<path d="M283.321 163.319C285.938 163.319 288.059 161.199 288.059 158.584C288.059 155.969 285.938 153.849 283.321 153.849C280.705 153.849 278.584 155.969 278.584 158.584C278.584 161.199 280.705 163.319 283.321 163.319Z" fill="white"/>
<path d="M462.5 227.26L449.845 214.773C449.229 214.161 448.498 213.676 447.694 213.346C446.89 213.016 446.029 212.848 445.16 212.852H445.116C444.24 212.854 443.374 213.03 442.567 213.37C441.76 213.709 441.028 214.205 440.414 214.829C437.584 217.691 435.975 221.538 435.924 225.561C435.873 229.584 437.385 233.47 440.142 236.403C440.275 236.547 440.414 236.686 440.553 236.825C441.322 237.59 442.172 238.269 443.087 238.852C445.589 240.468 448.506 241.323 451.485 241.313H451.579C453.624 241.306 455.647 240.894 457.531 240.101C459.415 239.308 461.123 238.149 462.556 236.692C463.798 235.432 464.489 233.732 464.479 231.964C464.468 230.196 463.757 228.505 462.5 227.26ZM461.767 235.908C459.417 238.274 456.323 239.758 453.007 240.11C449.69 240.462 446.354 239.661 443.56 237.841C442.76 237.313 442.014 236.708 441.331 236.036C438.604 233.345 437.059 229.681 437.035 225.851C437.011 222.02 438.51 218.338 441.203 215.612C441.715 215.091 442.325 214.677 442.999 214.393C443.673 214.11 444.396 213.964 445.127 213.963H445.16C445.884 213.96 446.601 214.1 447.27 214.374C447.94 214.649 448.548 215.053 449.062 215.562L461.717 228.054C462.764 229.09 463.358 230.499 463.367 231.971C463.377 233.444 462.801 234.86 461.767 235.908Z" fill="#3F3D56"/>
<path d="M420.979 186.279L408.324 173.787C407.078 172.551 405.394 171.86 403.639 171.865H403.6C402.723 171.868 401.856 172.045 401.048 172.386C400.24 172.726 399.507 173.223 398.893 173.848C396.553 176.222 395.037 179.283 394.564 182.581C394.092 185.88 394.69 189.243 396.269 192.178L396.275 192.183C396.926 193.383 397.736 194.491 398.681 195.477C398.787 195.599 398.909 195.721 399.032 195.844C401.938 198.727 405.869 200.34 409.964 200.332H410.064C412.108 200.323 414.131 199.91 416.015 199.116C417.899 198.321 419.607 197.162 421.04 195.705C421.655 195.082 422.142 194.344 422.472 193.533C422.802 192.722 422.969 191.854 422.963 190.979C422.957 190.104 422.779 189.238 422.439 188.432C422.098 187.625 421.602 186.894 420.979 186.279ZM420.245 194.927C418.915 196.28 417.33 197.355 415.581 198.092C413.833 198.829 411.956 199.213 410.058 199.221H409.964C407.114 199.22 404.328 198.376 401.956 196.797C399.585 195.218 397.733 192.973 396.635 190.345C395.537 187.716 395.241 184.822 395.784 182.026C396.327 179.23 397.685 176.657 399.687 174.631C400.723 173.584 402.133 172.991 403.606 172.981C405.08 172.972 406.497 173.547 407.546 174.581L420.201 187.067C421.248 188.105 421.84 189.515 421.849 190.988C421.857 192.461 421.281 193.878 420.245 194.927Z" fill="#3F3D56"/>
<path d="M463.31 231.186L449.358 217.414C448.443 216.513 447.208 216.011 445.924 216.019C444.639 216.027 443.411 216.544 442.507 217.457C441.377 218.598 440.482 219.951 439.875 221.438C439.269 222.925 438.961 224.516 438.97 226.122C438.979 227.728 439.305 229.317 439.928 230.797C440.552 232.276 441.462 233.619 442.605 234.748C443.748 235.876 445.103 236.768 446.591 237.373C448.079 237.978 449.673 238.284 451.279 238.273C452.886 238.262 454.475 237.935 455.955 237.31C457.435 236.685 458.778 235.774 459.906 234.631L463.31 231.186Z" fill="#9F7927"/>
<path d="M421.79 190.202L407.839 176.43C406.924 175.529 405.689 175.028 404.404 175.036C403.12 175.044 401.891 175.561 400.987 176.473C399.857 177.614 398.963 178.967 398.356 180.454C397.749 181.941 397.441 183.533 397.45 185.139C397.459 186.745 397.785 188.333 398.409 189.813C399.033 191.293 399.942 192.635 401.085 193.764C402.228 194.892 403.583 195.785 405.071 196.39C406.56 196.994 408.153 197.3 409.76 197.289C411.367 197.279 412.956 196.951 414.436 196.326C415.916 195.701 417.258 194.791 418.386 193.647L421.79 190.202Z" fill="#9F7927"/>
<path d="M447.979 239.763L447.645 240.641C446.078 240.047 444.559 239.45 443.088 238.852C417.033 228.227 404.595 215.79 396.275 192.183L396.27 192.178C395.875 191.067 395.492 189.93 395.119 188.767L395.997 188.484C396.291 189.602 396.72 190.68 397.276 191.694C397.731 192.989 398.2 194.249 398.682 195.477C406.501 215.401 418.034 226.788 440.142 236.403C441.254 236.886 442.393 237.366 443.56 237.841C444.916 238.724 446.409 239.373 447.979 239.763Z" fill="#3F3D56"/>
<path d="M408.092 199.32L407.311 200.111L436.176 228.605L436.958 227.814L408.092 199.32Z" fill="#3F3D56"/>
<path d="M163.709 175.711L163.724 157.457L152.988 158.416L156.777 169.929L143.023 190.766C142.163 190.959 141.377 191.398 140.763 192.029C140.148 192.66 139.73 193.457 139.56 194.321C139.39 195.186 139.476 196.081 139.806 196.897C140.137 197.714 140.698 198.417 141.421 198.921C142.145 199.424 142.999 199.706 143.88 199.733C144.761 199.76 145.631 199.53 146.383 199.071C147.136 198.612 147.738 197.944 148.117 197.149C148.497 196.354 148.636 195.465 148.519 194.592L163.709 175.711Z" fill="#FFB6B6"/>
<defs>
<linearGradient id="paint0_linear_288_25" x1="26.7412" y1="0.517029" x2="516.028" y2="34.7671" gradientUnits="userSpaceOnUse">
<stop stop-color="#4A659D"/>
<stop offset="1" stop-color="#D9DFF0"/>
</linearGradient>
</defs>
</svg>
