<svg width="414" height="400" viewBox="0 0 414 400" fill="none" xmlns="http://www.w3.org/2000/svg">
<path d="M314.781 307.871C271.287 334.515 227.412 344.97 183.156 339.237C138.9 333.505 101.985 314.998 72.4109 283.718C42.8369 252.438 35.4351 218.259 50.2054 181.18C64.9757 144.1 80.0877 103.533 95.5415 59.4777C110.995 15.4223 139.21 4.61761 180.186 27.0636C221.162 49.5095 252.557 73.0716 274.373 97.7499C296.188 122.428 319.25 156.957 343.558 201.337C367.867 245.716 358.274 281.228 314.781 307.871Z" fill="white"/>
<g clip-path="url(#clip0_260_23)">
<path d="M294.748 178.942L303.048 197.551L301.05 220.565C300.423 221.094 299.979 221.806 299.782 222.6C299.584 223.395 299.642 224.231 299.949 224.99C300.255 225.749 300.794 226.393 301.488 226.83C302.183 227.268 302.999 227.476 303.819 227.427C304.639 227.377 305.423 227.071 306.06 226.553C306.696 226.035 307.152 225.331 307.363 224.54C307.575 223.75 307.531 222.913 307.238 222.148C306.945 221.384 306.417 220.731 305.73 220.282L306.056 220.225L309.308 197.227L303.944 174.029L294.748 178.942Z" fill="#FFB8B8"/>
<path d="M271.045 300C279.226 300 285.859 299.312 285.859 298.464C285.859 297.616 279.226 296.928 271.045 296.928C262.864 296.928 256.231 297.616 256.231 298.464C256.231 299.312 262.864 300 271.045 300Z" fill="#E6E6E6"/>
<path d="M314.868 300C323.05 300 329.682 299.312 329.682 298.464C329.682 297.616 323.05 296.928 314.868 296.928C306.687 296.928 300.055 297.616 300.055 298.464C300.055 299.312 306.687 300 314.868 300Z" fill="#E6E6E6"/>
<path d="M348.816 300C354.441 300 359 299.527 359 298.944C359 298.361 354.441 297.888 348.816 297.888C343.191 297.888 338.632 298.361 338.632 298.944C338.632 299.527 343.191 300 348.816 300Z" fill="#E6E6E6"/>
<path d="M351.729 290.94C351.658 293.572 351.216 296.181 350.414 298.69C350.396 298.749 350.377 298.806 350.358 298.864H345.447C345.453 298.812 345.458 298.754 345.463 298.69C345.79 294.943 347.678 272.141 345.421 268.242C345.619 268.558 352.111 279.035 351.729 290.94Z" fill="#E6E6E6"/>
<path d="M351.362 298.69C351.321 298.749 351.278 298.807 351.235 298.864H347.551C347.579 298.815 347.611 298.758 347.648 298.69C348.257 297.597 350.058 294.329 351.731 290.94C353.527 287.298 355.176 283.519 355.037 282.151C355.08 282.46 356.323 291.865 351.362 298.69Z" fill="#E6E6E6"/>
<path d="M248.439 215.048H24.6932C23.9792 215.047 23.2946 214.764 22.7898 214.262C22.2849 213.759 22.0008 213.078 22 212.367V70.6807C22.0008 69.9699 22.2847 69.2885 22.7896 68.786C23.2946 68.2834 23.9791 68.0007 24.6932 68H248.439C249.153 68.0007 249.837 68.2834 250.342 68.786C250.847 69.2885 251.131 69.9699 251.132 70.6807V212.367C251.131 213.078 250.847 213.759 250.342 214.262C249.837 214.764 249.153 215.047 248.439 215.048ZM24.6932 69.0607C24.2617 69.0611 23.848 69.232 23.5428 69.5357C23.2377 69.8394 23.0661 70.2512 23.0656 70.6807V212.367C23.0661 212.797 23.2377 213.209 23.5428 213.512C23.848 213.816 24.2617 213.987 24.6932 213.987H248.439C248.87 213.987 249.284 213.816 249.589 213.512C249.894 213.209 250.066 212.797 250.066 212.367V70.6807C250.066 70.2512 249.894 69.8394 249.589 69.5357C249.284 69.232 248.87 69.0611 248.439 69.0607H24.6932Z" fill="#E6E6E6"/>
<path d="M190.484 88.8885H71.9361C71.3539 88.8892 70.7958 89.1197 70.3841 89.5294C69.9725 89.9392 69.7409 90.4948 69.7402 91.0742V191.973C69.7409 192.553 69.9725 193.108 70.3841 193.518C70.7958 193.928 71.3539 194.158 71.9361 194.159H190.484C191.066 194.158 191.624 193.928 192.036 193.518C192.448 193.108 192.679 192.553 192.68 191.973V91.0742C192.679 90.4948 192.448 89.9392 192.036 89.5294C191.624 89.1197 191.066 88.8892 190.484 88.8885ZM191.798 191.974C191.798 192.321 191.66 192.654 191.413 192.901C191.167 193.147 190.833 193.286 190.484 193.288H71.9361C71.5869 193.287 71.2523 193.148 71.0059 192.901C70.7595 192.655 70.6214 192.321 70.6219 191.974V91.0742C70.6214 90.7266 70.7595 90.393 71.0059 90.1467C71.2523 89.9004 71.5869 89.7615 71.9361 89.7604H190.484C190.833 89.7621 191.167 89.9012 191.413 90.1474C191.66 90.3936 191.798 90.7268 191.798 91.0742V191.974Z" fill="#3F3D56"/>
<path d="M99.3001 176.219C99.3001 176.374 99.2958 176.53 99.2877 176.681C99.1678 178.958 98.1747 181.102 96.5131 182.672C94.8515 184.241 92.6482 185.116 90.3576 185.116C88.0669 185.116 85.8636 184.241 84.2021 182.672C82.5405 181.102 81.5474 178.958 81.4275 176.681C81.4193 176.53 81.415 176.374 81.415 176.219C81.415 173.858 82.3572 171.594 84.0342 169.925C85.7112 168.256 87.9857 167.318 90.3574 167.318C92.7291 167.318 95.0036 168.256 96.6806 169.925C98.3576 171.594 99.2998 173.858 99.2998 176.219H99.3001Z" fill="#9F7927"/>
<path d="M181.272 170.283H111.008C110.623 170.298 110.258 170.461 109.99 170.737C109.722 171.014 109.573 171.383 109.573 171.767C109.573 172.151 109.722 172.521 109.99 172.797C110.258 173.074 110.623 173.237 111.008 173.251H181.272C181.667 173.265 182.052 173.123 182.341 172.855C182.631 172.587 182.802 172.216 182.817 171.823C182.832 171.43 182.689 171.047 182.421 170.759C182.152 170.47 181.78 170.299 181.385 170.283C181.347 170.282 181.31 170.282 181.272 170.283Z" fill="#9F7927"/>
<path d="M141.242 179.186H111.008C110.613 179.186 110.235 179.342 109.956 179.62C109.676 179.898 109.52 180.275 109.52 180.668C109.52 181.061 109.676 181.438 109.956 181.716C110.235 181.993 110.613 182.15 111.008 182.15H141.242C141.637 182.15 142.016 181.995 142.296 181.717C142.575 181.44 142.733 181.063 142.734 180.67C142.734 180.277 142.578 179.9 142.299 179.622C142.021 179.343 141.642 179.187 141.247 179.186H141.242Z" fill="#E6E6E6"/>
<path d="M218.648 159.275H100.1C99.4357 159.275 98.7993 159.012 98.3299 158.545C97.8605 158.077 97.5965 157.444 97.5957 156.783V104.999C97.5965 104.338 97.8605 103.705 98.3299 103.238C98.7993 102.77 99.4357 102.508 100.1 102.507H218.647C219.311 102.508 219.947 102.77 220.416 103.238C220.886 103.705 221.15 104.338 221.151 104.999V156.782C221.15 157.443 220.886 158.076 220.417 158.544C219.948 159.011 219.312 159.274 218.648 159.275Z" fill="#9F7927"/>
<path d="M124.243 120.863C123.848 120.846 123.462 120.986 123.171 121.252C122.879 121.518 122.705 121.889 122.688 122.282C122.671 122.675 122.811 123.06 123.078 123.35C123.346 123.64 123.718 123.813 124.113 123.83C124.157 123.832 124.2 123.832 124.243 123.83H194.506C194.89 123.814 195.253 123.65 195.519 123.374C195.785 123.097 195.933 122.729 195.933 122.347C195.933 121.964 195.785 121.596 195.519 121.32C195.253 121.044 194.89 120.88 194.506 120.863H124.243Z" fill="white"/>
<path d="M124.243 129.459C123.848 129.442 123.462 129.582 123.171 129.848C122.879 130.114 122.705 130.484 122.688 130.878C122.671 131.271 122.811 131.656 123.078 131.946C123.346 132.236 123.718 132.409 124.113 132.426C124.157 132.428 124.2 132.428 124.243 132.426H194.506C194.89 132.41 195.253 132.246 195.519 131.97C195.785 131.693 195.933 131.325 195.933 130.943C195.933 130.56 195.785 130.192 195.519 129.916C195.253 129.639 194.89 129.476 194.506 129.459H124.243Z" fill="white"/>
<path d="M124.243 137.951C123.859 137.967 123.496 138.131 123.231 138.407C122.965 138.684 122.816 139.052 122.816 139.434C122.816 139.817 122.965 140.185 123.231 140.461C123.496 140.737 123.859 140.901 124.243 140.918H154.477C154.673 140.926 154.869 140.896 155.053 140.83C155.237 140.763 155.406 140.661 155.55 140.529C155.695 140.397 155.812 140.238 155.895 140.062C155.977 139.885 156.024 139.694 156.033 139.499C156.042 139.304 156.011 139.11 155.944 138.926C155.877 138.743 155.775 138.575 155.642 138.431C155.51 138.287 155.351 138.171 155.173 138.088C154.995 138.006 154.803 137.959 154.608 137.951C154.564 137.949 154.521 137.949 154.477 137.951H124.243Z" fill="white"/>
<path d="M31.5597 77.387C32.5824 77.387 33.4114 76.5618 33.4114 75.5439C33.4114 74.526 32.5824 73.7008 31.5597 73.7008C30.537 73.7008 29.708 74.526 29.708 75.5439C29.708 76.5618 30.537 77.387 31.5597 77.387Z" fill="#9F7927"/>
<path d="M38.0407 77.387C39.0633 77.387 39.8924 76.5618 39.8924 75.5439C39.8924 74.526 39.0633 73.7008 38.0407 73.7008C37.018 73.7008 36.189 74.526 36.189 75.5439C36.189 76.5618 37.018 77.387 38.0407 77.387Z" fill="#9F7927"/>
<path d="M44.5211 77.387C45.5438 77.387 46.3728 76.5618 46.3728 75.5439C46.3728 74.526 45.5438 73.7008 44.5211 73.7008C43.4985 73.7008 42.6694 74.526 42.6694 75.5439C42.6694 76.5618 43.4985 77.387 44.5211 77.387Z" fill="#9F7927"/>
<path d="M291.914 155.817C296.469 155.817 300.162 152.141 300.162 147.607C300.162 143.073 296.469 139.397 291.914 139.397C287.358 139.397 283.666 143.073 283.666 147.607C283.666 152.141 287.358 155.817 291.914 155.817Z" fill="#FFB8B8"/>
<path d="M275.6 191.39L297.263 195.402C304.566 182.084 308.594 170.059 301.797 162.306L288.95 161.554C280.742 170.291 273.799 178.77 278.516 184.872L275.6 191.39Z" fill="#9F7927"/>
<path d="M294.891 180.933C299.848 182.821 304.45 181.181 308.673 175.799L302.413 163.778L294.437 165.352L294.891 180.933Z" fill="#9F7927"/>
<path d="M273.583 291.179L282.148 290.741L287.689 233.011L315.901 290.429L324.718 290.178L307.842 239.78C307.176 222.967 306.48 206.197 299.278 198.912L296.759 193.647L276.607 189.384L273.837 194.649C267.412 209.581 271.184 252.245 273.583 291.179Z" fill="#2F2E41"/>
<path d="M283.911 175.595L276.858 194.652L264.069 212.767C263.248 212.82 262.466 213.129 261.832 213.65C261.198 214.171 260.745 214.877 260.536 215.668C260.328 216.46 260.376 217.296 260.672 218.06C260.968 218.823 261.498 219.474 262.187 219.92C262.876 220.366 263.689 220.586 264.51 220.547C265.331 220.508 266.119 220.212 266.762 219.703C267.405 219.193 267.87 218.495 268.092 217.707C268.314 216.919 268.281 216.082 267.998 215.314L268.293 215.461L284.667 198.914L294.239 177.1L283.911 175.595Z" fill="#FFB8B8"/>
<path d="M282.149 175.595C285.678 179.542 290.521 180.191 296.759 177.35V163.811L288.95 161.554L282.149 175.595Z" fill="#9F7927"/>
<path d="M317.783 170.469C316.529 168.907 314.778 167.834 313.081 166.765C311.384 165.697 309.66 164.561 308.507 162.924C306.666 160.312 306.578 156.877 306.853 153.698C307.127 150.52 307.689 147.273 306.911 144.178C305.882 140.084 302.474 136.769 298.447 135.447C294.42 134.125 289.891 134.689 286.104 136.586L287.145 135.608C286.315 135.778 285.558 136.197 284.975 136.809C284.392 137.42 284.012 138.195 283.885 139.029C283.758 139.862 283.891 140.714 284.265 141.471C284.64 142.227 285.238 142.85 285.98 143.258C287.689 144.195 290.017 143.927 291.39 145.306C292.741 146.665 292.458 148.896 291.97 150.746C290.707 155.535 288.705 160.144 288.011 165.045C287.317 169.946 288.194 175.438 291.847 178.797C294.533 181.266 298.349 182.218 302.003 182.145C305.658 182.072 309.224 181.077 312.741 180.087C315.208 179.394 317.991 178.431 318.957 176.067C319.714 174.216 319.037 172.03 317.783 170.469Z" fill="#2F2E41"/>
<path d="M282.364 297.787L263.975 297.787V297.555C263.975 295.666 264.729 293.854 266.072 292.518C267.414 291.182 269.234 290.431 271.133 290.431H271.133L282.364 290.431L282.364 297.787Z" fill="#2F2E41"/>
<path d="M324.988 297.08L306.6 297.079V296.848C306.6 294.959 307.354 293.147 308.696 291.811C310.038 290.475 311.859 289.724 313.757 289.724H313.757L324.989 289.724L324.988 297.08Z" fill="#2F2E41"/>
</g>
<defs>
<clipPath id="clip0_260_23">
<rect width="337" height="232" fill="white" transform="translate(22 68)"/>
</clipPath>
</defs>
</svg>
